<svg width="123.457" xmlns="http://www.w3.org/2000/svg" height="63.98" viewBox="3223.937 1576 123.457 63.98" style="-webkit-print-color-adjust::exact" fill="none">
  <path d="M3226.238 1635.398h11.424a1.974 1.974 0 0 1-1.477-1.909v-55.52a1.994 1.994 0 0 1 1.979-1.969h82.567c1.075 0 1.969.894 1.969 1.969v16.739l-3.094.944v-9.525h-80.045v46.8h80.045v-12.077l1.025-.171a6.6 6.6 0 0 0 1.939-.653l.14-.03v13.473c0 .915-.633 1.688-1.477 1.909h11.947a2.3 2.3 0 1 1 0 4.602h-106.942c-1.266.02-2.301-1.015-2.301-2.291a2.305 2.305 0 0 1 2.301-2.291m77.061-24.133c1.055 1.136 2.231 3.456 2 5.466l14.267-2.421c-.533-4.039-1.718-7.747-4.009-10.892-4.622 3.135-7.274 5.084-12.258 7.847m-23.078 11.635c6.672-1.979 13.805 5.104 19.482-.392 1.507-1.457 2.531-3.808 2.401-6.008-.06-.884-.292-1.738-.764-2.492a6.6 6.6 0 0 0-.753-.954c-3.637-3.708-9.274-2.241-12.981.602-3.406 2.623-5.848 6.521-7.385 9.244m37.235-19.843c2.15 3.406 3.506 6.942 3.999 10.63l23.179-12.569c1.919-.864 3.144-1.749 2.652-4.26q-.573-1.236-1.567-1.658c-.653-.281-1.437-.281-2.361 0zm-71.033-6.28h66.562c.392 0 .743.141 1.015.382a6.4 6.4 0 0 0-2.261 1.065l-.141.111c-3.185 2.16-.984.653-1.818 1.225l-.503.352h-61.287v16.206h28.825a56 56 0 0 0-1.929 3.115h-28.463a1.56 1.56 0 0 1-1.557-1.558v-19.34c0-.854.693-1.558 1.557-1.558m57.871-3.627a1.558 1.558 0 0 1 0-3.114h6.28c.864 0 1.557.693 1.557 1.557s-.693 1.557-1.557 1.557zm-15.513 0a1.558 1.558 0 0 1 0-3.114h6.28a1.558 1.558 0 0 1 0 3.114zm-15.522 0a1.553 1.553 0 0 1-1.558-1.557c0-.864.694-1.557 1.558-1.557h6.279c.864 0 1.557.693 1.557 1.557s-.693 1.557-1.557 1.557zm-24.103-12.418c.864 0 1.567.703 1.567 1.568 0 .864-.703 1.567-1.567 1.567a1.57 1.57 0 0 1-1.568-1.567c0-.865.714-1.568 1.568-1.568m5.304 0a1.56 1.56 0 0 1 1.558 1.568c0 .864-.704 1.567-1.558 1.567a1.575 1.575 0 0 1-1.567-1.567c0-.865.703-1.568 1.567-1.568m-10.599 0c.864 0 1.567.703 1.567 1.568 0 .864-.703 1.567-1.567 1.567a1.57 1.57 0 0 1-1.568-1.567 1.57 1.57 0 0 1 1.568-1.568m32.603 55.53h6.48c.613 0 1.105.503 1.105 1.106 0 .612-.502 1.105-1.105 1.105h-6.48a1.11 1.11 0 0 1-1.106-1.105c0-.623.493-1.106 1.106-1.106" fill-rule="evenodd" clip-rule="evenodd" style="fill:#fff" class="fills" data-testid="svg-path"/>
</svg>
