<svg width="58.76" xmlns="http://www.w3.org/2000/svg" height="65.448" viewBox="3699.617 1575.274 58.76 65.448" style="-webkit-print-color-adjust::exact" fill="none">
  <g data-testid="svg-path" fill-rule="evenodd" clip-rule="evenodd">
    <path d="M3740.957 1617.264c-.098.242-.253.47-.455.671l-2.06 2.06-.01.011a2 2 0 0 1-.672.454 2 2 0 0 1-.8.166 1.97 1.97 0 0 1-1.456-.631l-1.343-1.327c-.082.037-.165.083-.242.119a10 10 0 0 1-.692.289c-.011.011-.021.011-.037.011a10 10 0 0 1-.733.253c-.083.025-.165.057-.253.072v1.637c0 .284-.057.552-.155.8a1.9 1.9 0 0 1-.454.661l-.021.021a2.2 2.2 0 0 1-.671.444 2.1 2.1 0 0 1-.78.155h-2.943c-.284 0-.548-.057-.801-.155a2 2 0 0 1-.671-.454 2 2 0 0 1-.454-.672 2.1 2.1 0 0 1-.155-.8v-1.869c-.093-.037-.181-.062-.274-.098-.243-.094-.48-.202-.728-.31-.243-.119-.48-.228-.707-.346-.073-.037-.145-.083-.217-.119l-1.152 1.172-.026.026a2.1 2.1 0 0 1-.671.434 2.1 2.1 0 0 1-.78.144 2.07 2.07 0 0 1-1.451-.573c-.01-.01-.02-.01-.02-.021l-2.056-2.081a2 2 0 0 1-.63-1.471q.001-.425.166-.811c.108-.253.263-.47.464-.661l1.317-1.317a5 5 0 0 1-.119-.253c-.098-.227-.201-.465-.299-.717a8 8 0 0 1-.253-.744c-.026-.083-.057-.17-.072-.253h-1.637c-.284 0-.553-.057-.801-.155a2 2 0 0 1-.661-.454l-.02-.021a2.3 2.3 0 0 1-.444-.661 2.1 2.1 0 0 1-.155-.78v-2.943q-.001-.876.609-1.472a2 2 0 0 1 .671-.454c.248-.098.511-.155.801-.155h1.869c.036-.093.062-.181.098-.274.093-.242.201-.48.31-.728.119-.248.227-.48.346-.707.036-.073.083-.145.119-.217l-1.173-1.152-.025-.026a2.1 2.1 0 0 1-.434-.671 2.1 2.1 0 0 1-.145-.78 2.07 2.07 0 0 1 .573-1.451c.011-.01.011-.02.021-.02l2.081-2.061a2.1 2.1 0 0 1 .671-.454 2.01 2.01 0 0 1 2.257.465l1.317 1.316c.093-.046.17-.082.253-.118.227-.098.465-.202.717-.3.238-.093.491-.181.744-.253.093-.026.171-.057.253-.072v-1.637c0-.284.057-.553.155-.8.098-.243.253-.465.455-.661l.02-.021c.201-.191.429-.346.661-.444.248-.098.511-.155.78-.155h2.943c.284 0 .547.057.801.155.242.098.469.253.671.454.201.202.356.429.454.672.098.247.155.511.155.8v1.869c.093.036.181.062.274.098.243.093.48.202.728.31.243.119.48.227.707.346.073.036.145.083.217.119l1.152-1.152c.201-.201.428-.356.671-.464a2 2 0 0 1 .8-.166c.285 0 .548.057.801.166.253.108.47.253.671.464l2.061 2.061.01.01c.201.202.356.429.454.671.109.253.166.517.166.801a1.97 1.97 0 0 1-.63 1.456l-1.317 1.343c.036.082.082.165.119.242q.14.31.289.682c.01.01.01.02.01.036.093.237.181.491.253.744.026.082.057.17.072.253h1.637c.284 0 .553.056.801.154.242.099.464.254.661.455l.02.021c.191.201.346.428.444.661.098.247.155.511.155.779v2.944c0 .284-.057.547-.155.8-.098.243-.253.47-.454.682a2 2 0 0 1-.671.454 2.2 2.2 0 0 1-.801.155h-1.869c-.036.093-.062.181-.098.274-.093.242-.191.48-.31.728-.119.242-.227.48-.346.707-.036.073-.083.145-.119.217l1.152 1.152c.201.201.356.428.465.671.108.253.165.516.165.8s-.057.548-.129.775m-17.237 18.636c-6.558-1.234-12.321-4.73-16.447-9.641a28.26 28.26 0 0 1-6.656-18.249 28.22 28.22 0 0 1 5.918-17.334 28.37 28.37 0 0 1 15.316-10.132l.919 3.542a24.72 24.72 0 0 0-13.338 8.825 24.6 24.6 0 0 0-5.138 15.099 24.63 24.63 0 0 0 5.778 15.895 24.66 24.66 0 0 0 13.653 8.251v-3.785l6.915 5.675-6.915 5.675zm10.56-55.774a28.35 28.35 0 0 1 16.333 9.506 28.27 28.27 0 0 1 6.765 18.378 28.24 28.24 0 0 1-5.299 16.514 28.44 28.44 0 0 1-13.973 10.369l-.588-1.735-.589-1.735a24.8 24.8 0 0 0 12.161-9.032 24.6 24.6 0 0 0 4.611-14.376c0-6.113-2.21-11.706-5.876-16.012a24.7 24.7 0 0 0-13.55-8.139v3.765l-6.909-5.68 6.914-5.675zm-.145 27.874c0 .356-.036.697-.098 1.028h-.01a5 5 0 0 1-.289.96c-.134.32-.289.62-.47.883a4.3 4.3 0 0 1-.609.754 5 5 0 0 1-.754.62c-.264.17-.563.335-.883.47-.011.01-.026.01-.037.02a5 5 0 0 1-.919.274 5.6 5.6 0 0 1-1.027.098c-.357 0-.697-.036-1.028-.098a5 5 0 0 1-.96-.289 5 5 0 0 1-1.637-1.09 5.3 5.3 0 0 1-.61-.754 6 6 0 0 1-.47-.883c-.01-.01-.01-.026-.02-.036a5 5 0 0 1-.274-.919 5.6 5.6 0 0 1-.098-1.028c0-.356.036-.697.098-1.027a5.1 5.1 0 0 1 .759-1.844c.171-.273.382-.526.61-.754.237-.237.48-.433.753-.619.264-.171.563-.336.884-.475.01-.011.025-.011.036-.021.299-.119.609-.207.924-.274a5.6 5.6 0 0 1 1.028-.098c.356 0 .697.036 1.027.098.336.062.656.165.961.289.32.135.619.29.883.476.273.18.526.392.754.619.227.238.428.48.609.754.17.263.336.563.47.883.01.01.01.026.02.036a5.2 5.2 0 0 1 .377 1.947" style="fill:#fff" class="fills"/>
    <g stroke-miterlimit="2.613" class="strokes">
      <path d="M3740.957 1617.264c-.098.242-.253.47-.455.671l-2.06 2.06-.01.011a2 2 0 0 1-.672.454 2 2 0 0 1-.8.166 1.97 1.97 0 0 1-1.456-.631l-1.343-1.327c-.082.037-.165.083-.242.119a10 10 0 0 1-.692.289c-.011.011-.021.011-.037.011a10 10 0 0 1-.733.253c-.083.025-.165.057-.253.072v1.637c0 .284-.057.552-.155.8a1.9 1.9 0 0 1-.454.661l-.021.021a2.2 2.2 0 0 1-.671.444 2.1 2.1 0 0 1-.78.155h-2.943c-.284 0-.548-.057-.801-.155a2 2 0 0 1-.671-.454 2 2 0 0 1-.454-.672 2.1 2.1 0 0 1-.155-.8v-1.869c-.093-.037-.181-.062-.274-.098-.243-.094-.48-.202-.728-.31-.243-.119-.48-.228-.707-.346-.073-.037-.145-.083-.217-.119l-1.152 1.172-.026.026a2.1 2.1 0 0 1-.671.434 2.1 2.1 0 0 1-.78.144 2.07 2.07 0 0 1-1.451-.573c-.01-.01-.02-.01-.02-.021l-2.056-2.081a2 2 0 0 1-.63-1.471q.001-.425.166-.811c.108-.253.263-.47.464-.661l1.317-1.317a5 5 0 0 1-.119-.253c-.098-.227-.201-.465-.299-.717a8 8 0 0 1-.253-.744c-.026-.083-.057-.17-.072-.253h-1.637c-.284 0-.553-.057-.801-.155a2 2 0 0 1-.661-.454l-.02-.021a2.3 2.3 0 0 1-.444-.661 2.1 2.1 0 0 1-.155-.78v-2.943q-.001-.876.609-1.472a2 2 0 0 1 .671-.454c.248-.098.511-.155.801-.155h1.869c.036-.093.062-.181.098-.274.093-.242.201-.48.31-.728.119-.248.227-.48.346-.707.036-.073.083-.145.119-.217l-1.173-1.152-.025-.026a2.1 2.1 0 0 1-.434-.671 2.1 2.1 0 0 1-.145-.78 2.07 2.07 0 0 1 .573-1.451c.011-.01.011-.02.021-.02l2.081-2.061a2.1 2.1 0 0 1 .671-.454 2.01 2.01 0 0 1 2.257.465l1.317 1.316c.093-.046.17-.082.253-.118.227-.098.465-.202.717-.3.238-.093.491-.181.744-.253.093-.026.171-.057.253-.072v-1.637c0-.284.057-.553.155-.8.098-.243.253-.465.455-.661l.02-.021c.201-.191.429-.346.661-.444.248-.098.511-.155.78-.155h2.943c.284 0 .547.057.801.155.242.098.469.253.671.454.201.202.356.429.454.672.098.247.155.511.155.8v1.869c.093.036.181.062.274.098.243.093.48.202.728.31.243.119.48.227.707.346.073.036.145.083.217.119l1.152-1.152c.201-.201.428-.356.671-.464a2 2 0 0 1 .8-.166c.285 0 .548.057.801.166.253.108.47.253.671.464l2.061 2.061.01.01c.201.202.356.429.454.671.109.253.166.517.166.801a1.97 1.97 0 0 1-.63 1.456l-1.317 1.343c.036.082.082.165.119.242q.14.31.289.682c.01.01.01.02.01.036.093.237.181.491.253.744.026.082.057.17.072.253h1.637c.284 0 .553.056.801.154.242.099.464.254.661.455l.02.021c.191.201.346.428.444.661.098.247.155.511.155.779v2.944c0 .284-.057.547-.155.8-.098.243-.253.47-.454.682a2 2 0 0 1-.671.454 2.2 2.2 0 0 1-.801.155h-1.869c-.036.093-.062.181-.098.274-.093.242-.191.48-.31.728-.119.242-.227.48-.346.707-.036.073-.083.145-.119.217l1.152 1.152c.201.201.356.428.465.671.108.253.165.516.165.8s-.057.548-.129.775Zm-17.237 18.636c-6.558-1.234-12.321-4.73-16.447-9.641a28.26 28.26 0 0 1-6.656-18.249 28.22 28.22 0 0 1 5.918-17.334 28.37 28.37 0 0 1 15.316-10.132l.919 3.542a24.72 24.72 0 0 0-13.338 8.825 24.6 24.6 0 0 0-5.138 15.099 24.63 24.63 0 0 0 5.778 15.895 24.66 24.66 0 0 0 13.653 8.251v-3.785l6.915 5.675-6.915 5.675zm10.56-55.774a28.35 28.35 0 0 1 16.333 9.506 28.27 28.27 0 0 1 6.765 18.378 28.24 28.24 0 0 1-5.299 16.514 28.44 28.44 0 0 1-13.973 10.369l-.588-1.735-.589-1.735a24.8 24.8 0 0 0 12.161-9.032 24.6 24.6 0 0 0 4.611-14.376c0-6.113-2.21-11.706-5.876-16.012a24.7 24.7 0 0 0-13.55-8.139v3.765l-6.909-5.68 6.914-5.675zm-.145 27.874c0 .356-.036.697-.098 1.028h-.01a5 5 0 0 1-.289.96c-.134.32-.289.62-.47.883a4.3 4.3 0 0 1-.609.754 5 5 0 0 1-.754.62c-.264.17-.563.335-.883.47-.011.01-.026.01-.037.02a5 5 0 0 1-.919.274 5.6 5.6 0 0 1-1.027.098c-.357 0-.697-.036-1.028-.098a5 5 0 0 1-.96-.289 5 5 0 0 1-1.637-1.09 5.3 5.3 0 0 1-.61-.754 6 6 0 0 1-.47-.883c-.01-.01-.01-.026-.02-.036a5 5 0 0 1-.274-.919 5.6 5.6 0 0 1-.098-1.028c0-.356.036-.697.098-1.027a5.1 5.1 0 0 1 .759-1.844c.171-.273.382-.526.61-.754.237-.237.48-.433.753-.619.264-.171.563-.336.884-.475.01-.011.025-.011.036-.021.299-.119.609-.207.924-.274a5.6 5.6 0 0 1 1.028-.098c.356 0 .697.036 1.027.098.336.062.656.165.961.289.32.135.619.29.883.476.273.18.526.392.754.619.227.238.428.48.609.754.17.263.336.563.47.883.01.01.01.026.02.036a5.2 5.2 0 0 1 .377 1.947Z" style="fill:none;fill-opacity:none;stroke-width:.5;stroke:#fff;stroke-opacity:1" class="stroke-shape"/>
    </g>
  </g>
</svg>
