<svg width="83.353" xmlns="http://www.w3.org/2000/svg" height="64.007" viewBox="4130.657 1576 83.353 64.007" style="-webkit-print-color-adjust::exact" fill="none">
  <path d="M4191.957 1593.962h17.284c1.316 0 2.517.536 3.371 1.397a4.75 4.75 0 0 1 1.398 3.372v36.507a4.74 4.74 0 0 1-1.398 3.371 4.75 4.75 0 0 1-3.371 1.398h-17.284a4.74 4.74 0 0 1-3.371-1.398 4.75 4.75 0 0 1-1.397-3.371v-36.514c0-1.316.536-2.517 1.397-3.371a4.73 4.73 0 0 1 3.371-1.391m15.588 20.804-8.024 1.601 1.621-2.401c-2.598-2.659-5.447-3.582-8.805-2.51 3.5-4.511 8.262-4.613 12.04-2.286l1.656-2.449zm-38.02-12.033 8.025-1.601-1.621 2.401c2.598 2.659 5.446 3.582 8.804 2.51-3.5 4.511-8.262 4.613-12.04 2.286l-1.655 2.449zM4132.726 1576h71.984c1.139 0 2.069.929 2.069 2.069v12.508h-4.396v-8.411a1.837 1.837 0 0 0-1.831-1.832h-63.675a1.837 1.837 0 0 0-1.831 1.832v35.191c0 1.004.821 1.832 1.831 1.832h45.808v8.635h-49.959a2.07 2.07 0 0 1-2.069-2.069v-47.686c0-1.14.929-2.069 2.069-2.069m45.373 54.68c.048 3.249 1.384 6.152 5.013 8.445h-28.788c2.896-2.103 5.019-4.66 5.013-8.445zm-9.381-9.829a2.659 2.659 0 1 1 0 5.318 2.659 2.659 0 0 1 0-5.318m31.874 13.295c1.079 0 1.961.868 1.961 1.96a1.957 1.957 0 0 1-1.961 1.961 1.96 1.96 0 0 1-1.96-1.961c0-1.078.868-1.96 1.96-1.96m-11.395-1.492h22.798v-32.187h-22.798z" fill-rule="evenodd" clip-rule="evenodd" style="fill:#fff" class="fills" data-testid="svg-path"/>
</svg>
