<svg width="55.651" xmlns="http://www.w3.org/2000/svg" height="64" viewBox="3257.839 2014.007 55.651 64" style="-webkit-print-color-adjust::exact" fill="none">
  <path d="M3278.474 2047.642c-.76 0-1.375-.734-1.375-1.635 0-.906.615-1.636 1.375-1.636h18.172c.76 0 1.375.735 1.375 1.636 0 .906-.615 1.635-1.375 1.635zm3.724 27.084a1.64 1.64 0 1 1 0 3.281h-20.542a3.8 3.8 0 0 1-2.698-1.12 3.8 3.8 0 0 1-1.119-2.698v-56.364c0-1.053.427-2.006 1.119-2.698a3.8 3.8 0 0 1 2.698-1.12h46.886a3.823 3.823 0 0 1 3.817 3.818v26.114a1.64 1.64 0 1 1-3.281 0v-26.114a.52.52 0 0 0-.161-.375.53.53 0 0 0-.375-.162h-46.886a.56.56 0 0 0-.38.156.57.57 0 0 0-.156.381v56.359a.54.54 0 0 0 .536.536zm27.047-22a1.26 1.26 0 0 0-.927-.37q-.532.007-.907.406l-2.036 2.12 5.714 5.515 2.057-2.14c.245-.25.349-.573.344-.927a1.25 1.25 0 0 0-.381-.906zm-10.672 20.661c-.755.24-1.505.49-2.255.734-.756.25-1.506.506-2.256.756q-2.665.876-2.979.963-.306.095.365-2.505l1.411-5.443 10.703-11.135 5.709 5.495zm-20.099-14.094c-.76 0-1.38-.744-1.38-1.661s.62-1.662 1.38-1.662h8.953c.76 0 1.38.745 1.38 1.662s-.62 1.661-1.38 1.661zm0-23.276c-.76 0-1.375-.734-1.375-1.635 0-.906.615-1.636 1.375-1.636h18.172c.76 0 1.375.735 1.375 1.636 0 .906-.615 1.635-1.375 1.635zm-7.885 19.375a1.938 1.938 0 1 1-.001 3.875 1.938 1.938 0 0 1 .001-3.875m0-11.468a1.937 1.937 0 1 1 0 3.873 1.937 1.937 0 0 1 0-3.873m0-11.469a1.937 1.937 0 1 1 0 3.875 1.937 1.937 0 0 1 0-3.875" fill-rule="evenodd" clip-rule="evenodd" style="fill:#fff" class="fills" data-testid="svg-path"/>
</svg>
