<svg width="65.616" xmlns="http://www.w3.org/2000/svg" height="64.001" viewBox="3696.192 2014.007 65.616 64.001" style="-webkit-print-color-adjust::exact" fill="none">
  <path d="M3728.192 2014.007a32 32 0 0 1 10.468 1.753c2.365.818 4.6 1.904 6.671 3.22a.313.313 0 0 1 .065.473l-2.29 2.936a.313.313 0 0 1-.421.067l-.005-.004a27.6 27.6 0 0 0-3.696-1.91l-.002-.001a27.6 27.6 0 0 0-10.79-2.183h-.004v-.001a27.54 27.54 0 0 0-12.349 2.906 27.7 27.7 0 0 0-7.198 5.193l-.002.002-.015.014a27.7 27.7 0 0 0-3.713 4.612 27.5 27.5 0 0 0-4.369 14.923v.003h-.001a27.6 27.6 0 0 0 2.906 12.349 27.7 27.7 0 0 0 5.194 7.198l.002.003.012.012a27.8 27.8 0 0 0 4.614 3.715 27.53 27.53 0 0 0 14.923 4.368h.003v.002a27.6 27.6 0 0 0 12.35-2.906 27.7 27.7 0 0 0 7.198-5.194l.003-.002.016-.016a28 28 0 0 0 3.711-4.61 27.5 27.5 0 0 0 4.369-14.922v-.005h.001a27.7 27.7 0 0 0-1.098-7.734 27.5 27.5 0 0 0-2.036-5.061.31.31 0 0 1 .091-.396l2.959-2.339a.31.31 0 0 1 .462.088h.001l.002.005.003.006a32 32 0 0 1 1.859 4 31.9 31.9 0 0 1 2.106 11.437v.003h-.001a31.9 31.9 0 0 1-3.364 14.291 32.1 32.1 0 0 1-6.008 8.333l-.002.002-.011.011a32.3 32.3 0 0 1-5.343 4.302 31.86 31.86 0 0 1-17.271 5.057h-.004v-.001a31.9 31.9 0 0 1-14.292-3.364 32.1 32.1 0 0 1-8.332-6.007l-.002-.003-.015-.015a32 32 0 0 1-4.298-5.339 31.87 31.87 0 0 1-5.057-17.271v-.004h.001a31.9 31.9 0 0 1 3.364-14.292 32.1 32.1 0 0 1 6.007-8.332l.002-.002.014-.012a32 32 0 0 1 5.34-4.3 31.86 31.86 0 0 1 17.272-5.058m17.697 8.703 8.955-8.556.596 5.77 6.368.797-9.589 9.292-4.666.4-18.619 17.317-1.716-1.477 17.636-18.423zm-17.697 13.168a10.3 10.3 0 0 1 2.037.206h.002q.706.145 1.377.386a.312.312 0 0 1 .141.485l-2.499 3.207a.31.31 0 0 1-.288.116v.001l-.014-.002-.111-.013-.01-.002-.096-.01-.008-.001a6 6 0 0 0-.531-.022h-.003v-.002a5.77 5.77 0 0 0-4.082 1.694l-.002.002-.015.013a6 6 0 0 0-.4.449 5.74 5.74 0 0 0-1.276 3.622v.003h-.001a5.76 5.76 0 0 0 1.694 4.082l.002.002.013.014a6 6 0 0 0 .953.765c.899.577 1.97.911 3.117.911h.003v.001a5.74 5.74 0 0 0 4.082-1.693l.003-.003.011-.01a6 6 0 0 0 .441-.498c.362-.46.656-.974.866-1.528a.3.3 0 0 1 .121-.152l4.039-3.194a.31.31 0 0 1 .502.21h.002l.002.024.001.016.013.134v.004h.001l.012.145v.002q.029.385.029.765v.003h-.001a10.1 10.1 0 0 1-1.065 4.522 10.2 10.2 0 0 1-1.901 2.637l-.002.002-.017.015q-.378.376-.793.712-.425.342-.884.637a10.1 10.1 0 0 1-5.465 1.6h-.004v-.001a10.1 10.1 0 0 1-4.521-1.065 10.2 10.2 0 0 1-2.637-1.901l-.002-.002-.018-.019a10.2 10.2 0 0 1-1.347-1.676 10.1 10.1 0 0 1-1.6-5.464v-.004h.001a10.1 10.1 0 0 1 1.065-4.521c.491-.98 1.135-1.87 1.9-2.636h.001l-.001-.001.002-.002q.381-.38.811-.727.425-.343.884-.637a10.1 10.1 0 0 1 5.466-1.601m.53 4.373a.313.313 0 0 1-.273-.33zm-.53-15.399a21.3 21.3 0 0 1 6.317.961 21 21 0 0 1 4.091 1.774.312.312 0 0 1 .092.463l-.002.002-2.319 2.975a.314.314 0 0 1-.402.079l-.008-.004a17 17 0 0 0-2.012-.888 16.8 16.8 0 0 0-5.757-1.012h-.004v-.001a16.7 16.7 0 0 0-7.505 1.767l-.024.012a16.9 16.9 0 0 0-4.35 3.144l-.002.002-.013.012a17 17 0 0 0-2.251 2.8 16.7 16.7 0 0 0-2.654 9.069v.003h-.001a16.76 16.76 0 0 0 1.766 7.505 16.8 16.8 0 0 0 3.156 4.374l.003.002q.643.644 1.343 1.207.703.568 1.468 1.059a16.73 16.73 0 0 0 9.069 2.654h.003v.001a16.76 16.76 0 0 0 7.506-1.767 16.8 16.8 0 0 0 4.374-3.156l.002-.002q.643-.645 1.207-1.343.568-.705 1.058-1.469a16.7 16.7 0 0 0 2.655-9.068h-.001v-.008h.001a17 17 0 0 0-.371-3.519 17 17 0 0 0-.696-2.38.31.31 0 0 1 .116-.367l3.024-2.391a.31.31 0 0 1 .476.115l.002.006.002.004h.001q.236.535.454 1.113.214.571.392 1.145c.617 1.986.949 4.095.949 6.281v.003h-.001a21.1 21.1 0 0 1-6.195 14.955l-.003.002-.012.011a21 21 0 0 1-3.527 2.84 21.06 21.06 0 0 1-11.417 3.343h-.004a21.08 21.08 0 0 1-14.955-6.195l-.003-.002-.015-.016a21 21 0 0 1-2.836-3.524 21.06 21.06 0 0 1-3.343-11.416v-.004h.001a21.1 21.1 0 0 1 6.195-14.954h.001l-.001-.001.002-.002.014-.013a21.4 21.4 0 0 1 3.525-2.838 21.1 21.1 0 0 1 11.419-3.343" style="fill:#fff" class="fills" data-testid="svg-path"/>
</svg>
