<svg width="54.685" xmlns="http://www.w3.org/2000/svg" height="64" viewBox="4144.987 2014.007 54.685 64" style="-webkit-print-color-adjust::exact" fill="none">
  <path d="M4145.294 2064.528c-.766 2.989-.073 6.359 1.776 9.255 2.365-12.313 16.859-7.078 9.417 4.224 6.442-.521 9.922-5.495 9.786-11.62-.062-2.885 0-4.453.453-5.766a7 7 0 0 1 .87-1.672 6 6 0 0 1-.474-2.302v-.151a6.1 6.1 0 0 1 .625-2.604l-3.87-3.765-1.073 1.421a27.6 27.6 0 0 1-3.468 3.454 9.8 9.8 0 0 1-2.391 1.078c-5.187 1.776-10.057 2.255-11.651 8.448m30.292-10.938-22.917-22.312-3.125-.552a1.9 1.9 0 0 1-.99-.521l-2.661-2.604a1.905 1.905 0 0 1-.036-2.683l3.213-3.245a1.897 1.897 0 0 1 2.677 0l2.36 2.339c.264.259.445.591.52.953l1.042 3.807 22.651 22.105 2.307-2.323a.364.364 0 0 1 .521 0l1.505 1.489a.37.37 0 0 1 .11.235c.062.463.099.838.135 1.156.078.776.12 1.167.261 1.302.14.135.52.156 1.276.208.323 0 .713.052 1.234.104a.35.35 0 0 1 .224.105l11.573 11.666a5.99 5.99 0 0 1 1.917 6.479 6.2 6.2 0 0 1-1.349 2.303 5.74 5.74 0 0 1-2.198 1.484c-1.953.724-4.396.344-6.703-1.984l-11.058-11.178a.4.4 0 0 1-.109-.229 40 40 0 0 1-.198-1.562c-.099-.839-.151-1.276-.318-1.438-.166-.161-.656-.192-1.635-.224-.339 0-.734 0-1.198-.047a.37.37 0 0 1-.24-.104l-1.479-1.463a.373.373 0 0 1 0-.521zm6.01 7.625a.9.9 0 0 1-.201-.298.93.93 0 0 1 0-.706.928.928 0 0 1 1.508-.298l10 10.135a.923.923 0 0 1-.647 1.581.92.92 0 0 1-.655-.268zm2.75-2.781a.925.925 0 0 1-.008-1.305.925.925 0 0 1 1.305-.008l10.026 10.146a.93.93 0 0 1 .274.651.9.9 0 0 1-.266.654.93.93 0 0 1-.651.274.9.9 0 0 1-.654-.266zm-4.463-15.594 3.093-4.047c3.724-5.057 13.433-2.083 15.813-11.328.76-2.969.068-6.333-1.766-9.234-2.364 12.312-16.854 7.078-9.411-4.224-6.443.521-9.922 5.495-9.787 11.62.063 2.687.818 4.88-1.729 8.286l-2.984 3.964 5.469 5.328a6 6 0 0 1 1.302-.365" fill-rule="evenodd" clip-rule="evenodd" style="fill:#fff" class="fills" data-testid="svg-path"/>
</svg>
